<?xml version="1.0" standalone="no"?>
<!DOCTYPE svg PUBLIC "-//W3C//DTD SVG 1.1//EN" "http://www.w3.org/Graphics/SVG/1.1/DTD/svg11.dtd" >
<svg xmlns="http://www.w3.org/2000/svg">
<metadata>
This is a custom SVG webfont generated by Font Squirrel.
Copyright   : Copyright 2004 Process Type Foundry All rights reserved
Foundry     : Process Type Foundry
</metadata>
<defs>
<font id="KlavikaLightItalic" horiz-adv-x="1060" >
<font-face units-per-em="2048" ascent="1638" descent="-410" />
<missing-glyph horiz-adv-x="450" />
<glyph unicode=" "  horiz-adv-x="450" />
<glyph unicode="&#x09;" horiz-adv-x="450" />
<glyph unicode="&#xa0;" horiz-adv-x="450" />
<glyph unicode="!" horiz-adv-x="512" d="M102 0l31 176h123l-31 -176h-123zM195 352l34 342l125 711h115l-125 -711l-84 -342h-65z" />
<glyph unicode="&#x22;" horiz-adv-x="718" d="M207 905l88 500h100l-88 -500h-100zM520 905l88 500h101l-88 -500h-101z" />
<glyph unicode="#" horiz-adv-x="1441" d="M106 369l23 96h279l96 424h-279l23 96h278l78 338h105l-78 -338h403l78 338h105l-78 -338h278l-22 -96h-279l-96 -424h278l-22 -96h-279l-82 -369h-104l82 369h-404l-81 -369h-105l82 369h-279zM512 465h403l97 424h-404z" />
<glyph unicode="$" horiz-adv-x="1028" d="M41 41l27 94q193 -53 340 -53q170 0 231 46t86 185q16 88 16 131q0 66 -46 96.5t-197 80.5q-168 55 -226.5 104t-58.5 141q0 43 18 154q35 188 115 253.5t285 69.5l37 203h110l-37 -205q123 -6 246 -38l-20 -99q-156 37 -295 37q-102 0 -159.5 -9t-92.5 -40t-47.5 -66.5 t-26.5 -113.5q-18 -106 -18 -135q0 -57 42 -85t191 -79q176 -59 235.5 -109.5t59.5 -144.5q0 -51 -16 -144q-31 -178 -103.5 -250.5t-275.5 -82.5l-37 -205h-111l37 205q-172 6 -309 59z" />
<glyph unicode="%" horiz-adv-x="1712" d="M168 838q0 31 6 65l37 213q25 141 100.5 204.5t233.5 63.5q121 0 185.5 -57t64.5 -160q0 -29 -7 -63l-32 -184q-25 -139 -97.5 -209t-240.5 -70q-250 0 -250 197zM266 848q0 -63 37 -92t129 -29q106 0 156.5 46.5t68.5 146.5l35 194q6 31 6 53q0 131 -166 131 q-104 0 -155 -45t-68 -135l-37 -211q-6 -35 -6 -59zM440 27l795 1357l80 -47l-797 -1357zM958 176q0 33 7 66l36 213q25 141 101 204.5t233 63.5q121 0 185.5 -57.5t64.5 -159.5q0 -31 -6 -64l-33 -184q-25 -139 -97.5 -208.5t-240.5 -69.5q-250 0 -250 196zM1057 186 q0 -63 36.5 -91.5t129.5 -28.5q106 0 156.5 46t68.5 146l35 195q6 31 6 53q0 131 -166 131q-104 0 -155.5 -45t-67.5 -135l-37 -211q-6 -33 -6 -60z" />
<glyph unicode="&#x26;" horiz-adv-x="1425" d="M94 215q0 25 8 78l66 369q66 356 422 356q137 0 221 -60.5t84 -173.5q0 -154 -145 -231h286q137 0 224.5 21.5t177.5 82.5l45 -77q-152 -127 -420 -127q-109 -225 -259.5 -349t-400.5 -124q-156 0 -232.5 64.5t-76.5 170.5zM209 221q0 -80 48 -109.5t165 -29.5 q338 0 524 371h-354l-25 100q98 31 155.5 93.5t57.5 129.5q0 139 -202 139q-113 0 -193 -63.5t-102 -189.5l-66 -369q-8 -53 -8 -72z" />
<glyph unicode="'" horiz-adv-x="405" d="M207 905l88 500h100l-88 -500h-100z" />
<glyph unicode="(" horiz-adv-x="608" d="M150 357q0 350 126.5 640.5t374.5 563.5l76 -64q-240 -283 -352.5 -547t-112.5 -594q0 -317 156 -622l-94 -49q-174 322 -174 672z" />
<glyph unicode=")" horiz-adv-x="608" d="M-82 -248q238 283 348.5 544t110.5 593q0 317 -156 622l94 50q174 -322 174 -672t-126.5 -641t-374.5 -563z" />
<glyph unicode="*" horiz-adv-x="968" d="M215 1055l12 71h310l-125 267l69 34l125 -264l209 264l59 -47l-210 -254h311l-12 -71h-310l129 -264l-71 -35l-127 272l-222 -272l-61 51l209 248h-295z" />
<glyph unicode="+" horiz-adv-x="1099" d="M133 446v103h359v366h110v-366h359v-103h-359v-366h-110v366h-359z" />
<glyph unicode="," horiz-adv-x="491" d="M31 -193l108 193h-47l31 176h123l-31 -176l-139 -221z" />
<glyph unicode="-" horiz-adv-x="733" d="M143 524l17 101h471l-17 -101h-471z" />
<glyph unicode="." horiz-adv-x="491" d="M92 0l31 176h123l-31 -176h-123z" />
<glyph unicode="/" horiz-adv-x="888" d="M-2 -240l790 1624h121l-792 -1624h-119z" />
<glyph unicode="0" horiz-adv-x="1142" d="M121 246q0 23 8 80l119 673q33 188 139.5 266t327.5 78q170 0 261 -77.5t91 -210.5q0 -25 -8 -78l-113 -641q-33 -186 -131 -271t-340 -85q-354 0 -354 266zM236 250q0 -88 59 -128t199 -40q162 0 237 61.5t100 194.5l113 639q8 39 8 78q0 94 -60.5 140t-195.5 46 q-164 0 -237.5 -59.5t-98.5 -194.5l-116 -659q-8 -43 -8 -78z" />
<glyph unicode="1" horiz-adv-x="657" d="M109 1124l378 199h107l-234 -1323h-114l209 1186l-301 -156z" />
<glyph unicode="2" horiz-adv-x="997" d="M41 0l16 104l453 471l169 180q42 46 82 107.5t50 114.5l8 45q8 41 8 82q0 72 -53 104.5t-194 32.5q-139 0 -312 -51l-14 94q186 59 356 59q332 0 332 -239q0 -33 -6 -70l-10 -57q-18 -104 -73.5 -180t-256.5 -287l-393 -408h579l-16 -102h-725z" />
<glyph unicode="3" horiz-adv-x="983" d="M16 41l27 96q162 -55 322 -55q162 0 224 49t83 172l16 94q4 25 4 52q0 165 -218 165h-3h-264l18 103h273q104 0 167.5 48t77.5 130l29 164q4 25 4 45q0 74 -57 105.5t-176 31.5q-121 0 -289 -37l-16 99q160 40 312 40h7q168 0 252 -60t84 -169q0 -27 -6 -57l-27 -152 q-16 -100 -59 -151.5t-142 -87.5q70 -14 109 -71.5t39 -139.5q0 -25 -4 -58l-17 -96q-20 -119 -55 -182.5t-125 -101t-248 -37.5q-188 0 -342 61z" />
<glyph unicode="4" horiz-adv-x="1089" d="M37 358l16 123l748 842h164l-154 -866h203l-19 -99h-200l-64 -358h-115l64 358h-643zM170 457h526l133 749z" />
<glyph unicode="5" horiz-adv-x="987" d="M39 33l27 96q178 -47 313 -47q160 0 227.5 50t89.5 183l17 91q8 49 8 73q0 78 -50 114t-165 38q-16 0 -160.5 2t-159.5 2l121 688h668l-17 -102h-555l-84 -484q39 0 69 -1t71 -2t82 -1q150 -2 222.5 -67.5t72.5 -178.5q0 -33 -7 -69l-18 -107q-31 -178 -123 -254.5 t-328 -76.5q-166 0 -321 53z" />
<glyph unicode="6" horiz-adv-x="1048" d="M119 229q0 37 6 74l102 580q45 260 165 360t407 100q119 0 213 -28l-23 -96q-86 22 -172 22h-8q-131 0 -212 -16.5t-132 -62.5t-77 -109.5t-46 -171.5l-35 -197q158 51 305 51q162 0 232.5 -54t70.5 -165q0 -41 -10 -98l-20 -115q-31 -170 -120 -246.5t-310 -76.5 q-336 0 -336 249zM236 244q0 -90 58 -126t179 -36q143 0 210 49t87 168l23 129q8 53 8 72q0 72 -47 102.5t-164 30.5q-143 0 -303 -62l-47 -270q-4 -25 -4 -57z" />
<glyph unicode="7" horiz-adv-x="868" d="M43 0l788 1225h-641l17 98h762l-17 -94l-788 -1229h-121z" />
<glyph unicode="8" horiz-adv-x="1128" d="M111 211q0 23 8 80l8 45q25 131 99.5 209t242.5 131q-193 119 -193 276q0 16 5 45l4 29q31 166 129 241.5t303 75.5q156 0 241.5 -69.5t85.5 -181.5q0 -23 -6 -58l-6 -37q-18 -109 -88 -185.5t-223 -137.5q121 -55 178 -120t57 -155q0 -27 -6 -63l-8 -45 q-31 -170 -130 -240.5t-335 -70.5q-188 0 -277 56t-89 175zM227 229q0 -84 60.5 -115.5t208.5 -31.5q164 0 238.5 47t94.5 170l9 45q6 33 6 55q0 70 -53.5 112t-200.5 110q-188 -70 -259 -124.5t-87 -148.5l-11 -57q-6 -33 -6 -62zM391 954q0 -129 215 -229 q150 63 221.5 121.5t87.5 142.5l11 55q4 29 4 46q0 151 -229 151h-3q-264 0 -297 -203l-8 -49q-2 -18 -2 -35z" />
<glyph unicode="9" horiz-adv-x="1036" d="M74 8l22 96q86 -22 172 -22h8q176 0 268.5 36t133.5 107.5t65 216.5l35 197q-158 -51 -305 -51q-162 0 -232.5 55t-70.5 166q0 39 10 96l21 115q31 170 120 246.5t310 76.5q168 0 252 -68.5t84 -187.5q0 -31 -6 -67l-103 -580q-31 -178 -85 -272t-169 -141t-317 -47 q-119 0 -213 28zM287 825q0 -72 46 -103.5t163 -31.5q143 0 303 62l47 270q6 31 6 59q0 88 -59.5 124t-180.5 36q-141 0 -209 -50t-88 -167l-22 -129q-6 -39 -6 -70z" />
<glyph unicode=":" horiz-adv-x="495" d="M92 0l31 176h123l-31 -176h-123zM209 655l31 176h122l-30 -176h-123z" />
<glyph unicode=";" horiz-adv-x="493" d="M31 -193l108 193h-47l31 176h123l-31 -176l-139 -221zM207 655l31 176h122l-30 -176h-123z" />
<glyph unicode="&#x3c;" horiz-adv-x="1124" d="M102 457v86l813 475l50 -84l-750 -434l754 -437l-49 -83z" />
<glyph unicode="=" horiz-adv-x="966" d="M143 281v92h711v-92h-711zM143 637v92h711v-92h-711z" />
<glyph unicode="&#x3e;" horiz-adv-x="1124" d="M166 63l754 437l-750 434l49 84l813 -475v-86l-817 -477z" />
<glyph unicode="?" horiz-adv-x="946" d="M244 0l30 176h123l-30 -176h-123zM281 1393q148 32 292 32h9q176 0 247.5 -53t71.5 -176q0 -66 -14 -139q-25 -135 -49.5 -196.5t-66.5 -103.5t-155 -122l-241 -168l-58 88l256 174q106 74 139 128t60 202q16 92 16 137q0 76 -48 101.5t-181 25.5q-123 0 -266 -31z" />
<glyph unicode="@" horiz-adv-x="1533" d="M154 539q0 389 203.5 617t582.5 228q258 0 397.5 -128t139.5 -324q0 -233 -105.5 -373.5t-308.5 -140.5q-96 0 -143 55q-111 -55 -213 -55q-72 0 -109 35.5t-37 95.5q0 14 4 43l41 231q16 100 66.5 141.5t163.5 41.5q127 0 237 -54l-78 -440q23 -10 66 -10 q158 0 237.5 119.5t79.5 304.5q0 176 -115.5 272t-326.5 96q-319 0 -500.5 -198.5t-181.5 -554.5q0 -219 132 -344t396 -125q207 0 426 90l13 -84q-201 -98 -451 -98q-295 0 -455.5 150.5t-160.5 408.5zM651 551q0 -27 17.5 -38t62.5 -11q84 0 180 55l60 342q-87 23 -148 23 q-63 0 -88.5 -21.5t-36.5 -77.5l-43 -239q-4 -20 -4 -33z" />
<glyph unicode="A" horiz-adv-x="1261" d="M-2 0l700 1364h176l230 -1364h-119l-59 360h-617l-190 -360h-121zM362 463h543l-125 840z" />
<glyph unicode="B" horiz-adv-x="1144" d="M92 0l240 1364h506q121 0 188.5 -54.5t67.5 -152.5q0 -29 -7 -59l-26 -152q-16 -98 -53 -150.5t-144 -93.5q158 -33 158 -196q0 -31 -6 -64l-33 -186q-25 -137 -108.5 -196.5t-247.5 -59.5h-535zM227 102h418q106 0 157.5 44t65.5 130l31 177q4 33 4 43q0 151 -193 151 h-3h-383zM342 750h338q229 0 262 188l31 176q4 25 4 35q0 113 -150 113h-395z" />
<glyph unicode="C" horiz-adv-x="1038" d="M117 272q0 41 10 103l109 614q37 211 156.5 303t363.5 92q168 0 317 -38l-20 -101q-154 35 -305 35q-186 0 -277.5 -68.5t-120.5 -234.5l-106 -600q-8 -43 -8 -88q0 -106 69.5 -155.5t231.5 -49.5q137 0 313 29l4 -101q-168 -32 -346 -32q-391 0 -391 292z" />
<glyph unicode="D" horiz-adv-x="1210" d="M92 0l240 1364h444q367 0 367 -305q0 -45 -10 -107l-101 -571q-37 -207 -138 -294t-341 -87h-461zM227 104h334q182 0 256 68t103 225l98 557q10 61 10 103q0 104 -61.5 153.5t-200.5 49.5h-334z" />
<glyph unicode="E" horiz-adv-x="1073" d="M92 0l240 1364h766l-19 -104h-647l-90 -512h602l-18 -105h-602l-97 -539h650l-17 -104h-768z" />
<glyph unicode="F" horiz-adv-x="1026" d="M92 0l240 1364h772l-19 -104h-655l-94 -533h610l-18 -104h-611l-108 -623h-117z" />
<glyph unicode="G" horiz-adv-x="1187" d="M117 266q0 53 12 117l107 604q37 213 148.5 305t373.5 92q199 0 364 -55l-22 -100q-201 51 -359 51q-195 0 -276.5 -64.5t-112.5 -230.5l-106 -602q-10 -66 -10 -107q0 -100 63 -146t221 -46q156 0 305 39l86 485h117l-98 -565q-190 -63 -436 -63q-199 0 -288 72.5 t-89 213.5z" />
<glyph unicode="H" horiz-adv-x="1265" d="M92 0l240 1364h117l-107 -610h662l108 610h117l-240 -1364h-117l113 649h-661l-115 -649h-117z" />
<glyph unicode="I" horiz-adv-x="505" d="M102 0l240 1364h117l-240 -1364h-117z" />
<glyph unicode="J" horiz-adv-x="485" d="M-166 -313q174 145 209 188t49 123l242 1366h117l-246 -1391q-4 -25 -8 -44t-14.5 -38.5t-15.5 -32t-22 -32.5l-27 -31q-9 -10 -40 -37l-47 -41l-61 -52q-44 -38 -72 -60z" />
<glyph unicode="K" horiz-adv-x="1128" d="M92 0l240 1364h117l-240 -1364h-117zM381 694l649 670h148l-660 -676l451 -688h-131z" />
<glyph unicode="L" horiz-adv-x="1005" d="M92 0l240 1364h117l-224 -1260h615l-17 -104h-731z" />
<glyph unicode="M" horiz-adv-x="1634" d="M88 0l281 1364h172l223 -1120l614 1120h185l-199 -1364h-117l187 1247l-580 -1071h-195l-204 1071l-250 -1247h-117z" />
<glyph unicode="N" horiz-adv-x="1310" d="M92 0l240 1364h176l430 -1258l221 1258h115l-240 -1364h-176l-430 1255l-221 -1255h-115z" />
<glyph unicode="O" horiz-adv-x="1257" d="M131 397l100 566q41 227 165 324t380 97q201 0 307.5 -96t106.5 -246q0 -27 -8 -79l-103 -574q-35 -197 -160 -303t-387 -106q-409 0 -409 319q0 55 8 98zM240 307q0 -111 70.5 -167t240.5 -56q197 0 290 75.5t122 229.5l102 576q8 39 8 84q0 231 -311 231 q-195 0 -291 -76t-125 -241l-98 -557q-8 -47 -8 -99z" />
<glyph unicode="P" horiz-adv-x="1087" d="M92 0l240 1364h461q323 0 323 -241q0 -26 -8 -79l-37 -208q-29 -160 -119 -237t-309 -77h-342l-92 -522h-117zM319 627h345q141 0 205.5 47t84.5 162l39 219q6 31 6 57q0 80 -53 114t-170 34h-346z" />
<glyph unicode="Q" horiz-adv-x="1257" d="M131 397l100 566q41 227 165 324t380 97q201 0 307.5 -96t106.5 -246q0 -27 -8 -79l-103 -574q-35 -197 -160 -303t-387 -106q-409 0 -409 319q0 55 8 98zM240 307q0 -111 70.5 -167t240.5 -56q197 0 290 75.5t122 229.5l102 576q8 39 8 84q0 231 -311 231 q-195 0 -291 -76t-125 -241l-98 -557q-8 -47 -8 -99zM317 -262l19 100q292 -10 528 -59l-24 -103q-248 53 -523 62z" />
<glyph unicode="R" horiz-adv-x="1245" d="M92 0l240 1364h475q330 0 330 -246q0 -33 -7 -74l-38 -219q-23 -123 -83.5 -190.5t-191.5 -93.5l270 -541h-129l-262 526h-395l-92 -526h-117zM319 631h367q137 0 204 46t87 159l39 219q6 31 6 57q0 82 -54.5 115t-170.5 33h-367z" />
<glyph unicode="S" horiz-adv-x="1087" d="M45 49l29 96q201 -61 366 -61q178 0 249 55.5t95 198.5q16 86 17 127q0 68 -51.5 98.5t-221.5 73.5q-176 47 -241.5 104.5t-65.5 165.5q0 66 15 140q35 199 133 268t340 69q178 0 340 -45l-21 -98q-164 39 -323 39q-197 0 -262.5 -47t-90.5 -189q-16 -88 -16 -131 q0 -72 49 -102.5t209 -75.5q190 -53 257 -105t67 -151q0 -53 -17 -141q-33 -195 -127 -276.5t-350 -81.5q-199 0 -379 69z" />
<glyph unicode="T" horiz-adv-x="1058" d="M180 1260l19 104h956l-18 -104h-420l-221 -1260h-117l221 1260h-420z" />
<glyph unicode="U" horiz-adv-x="1286" d="M143 307q0 37 9 90l170 967h116l-172 -977q-8 -57 -8 -82q0 -113 74 -167t233 -54q354 0 408 311l170 969h117l-173 -981q-35 -193 -157.5 -298t-382.5 -105q-205 0 -304.5 89t-99.5 238z" />
<glyph unicode="V" horiz-adv-x="1177" d="M211 1364h115l204 -1264l623 1264h121l-672 -1364h-170z" />
<glyph unicode="W" horiz-adv-x="1806" d="M209 1364h108l123 -1282l525 1282h180l94 -1282l530 1282h119l-563 -1364h-192l-89 1288l-520 -1288h-188z" />
<glyph unicode="X" horiz-adv-x="1177" d="M-16 0l573 692l-319 672h120l277 -584l481 584h137l-567 -684l326 -680h-121l-283 590l-487 -590h-137z" />
<glyph unicode="Y" horiz-adv-x="1071" d="M166 1364h115l258 -825l534 825h133l-633 -958l-71 -406h-117l76 424z" />
<glyph unicode="Z" horiz-adv-x="1134" d="M104 106l879 1154h-694l18 104h799l6 -107l-879 -1153h709l-16 -104h-813z" />
<glyph unicode="[" horiz-adv-x="616" d="M68 -258l331 1876h367l-18 -107h-254l-293 -1663h252l-19 -106h-366z" />
<glyph unicode="\" horiz-adv-x="878" d="M287 1384h108l217 -1624h-106z" />
<glyph unicode="]" horiz-adv-x="614" d="M-94 -258l18 106h254l293 1663h-252l19 107h366l-332 -1876h-366z" />
<glyph unicode="^" horiz-adv-x="927" d="M168 842l385 563h127l207 -584l-103 -37l-178 516l-352 -522z" />
<glyph unicode="_" horiz-adv-x="884" d="M8 -20h869v-54h-869v54z" />
<glyph unicode="`" horiz-adv-x="598" d="M266 1300l64 78q74 -66 217 -164l-55 -75q-145 90 -226 161z" />
<glyph unicode="a" horiz-adv-x="1021" d="M84 147q0 33 6 74l76 428q37 199 131 284t293 85q166 0 344 -66l-168 -952h-104l20 145q-194 -165 -399 -165h-2q-98 0 -147.5 38.5t-49.5 128.5zM199 162q0 -45 21.5 -62.5t70.5 -17.5q188 0 409 197l107 604q-108 32 -227 32h-7q-139 0 -203.5 -61t-93.5 -225l-71 -408 q-6 -37 -6 -59z" />
<glyph unicode="b" horiz-adv-x="1028" d="M88 37l242 1368l116 16l-98 -565q188 162 402 162q198 0 198 -166q0 -22 -8 -76l-76 -428q-35 -197 -131 -282.5t-293 -85.5q-180 0 -352 57zM215 106q105 -24 232 -24h10q139 0 203.5 61.5t93.5 225.5l71 407q6 37 6 62q0 45 -21.5 61t-70.5 16q-92 0 -203.5 -54 t-211.5 -142z" />
<glyph unicode="c" horiz-adv-x="817" d="M78 184q0 31 6 62l72 403q37 205 128 287t281 82q135 0 248 -41l-25 -96q-118 34 -229 34h-6q-137 0 -197.5 -60t-89.5 -226l-69 -398q-4 -33 -4 -45q0 -57 35.5 -80.5t111.5 -23.5q154 0 324 70l18 -97q-170 -75 -351 -75h-5q-113 0 -180.5 53t-67.5 151z" />
<glyph unicode="d" horiz-adv-x="1038" d="M84 147q0 33 6 74l76 428q35 201 133 285t291 84q133 0 241 -33l74 420l117 16l-250 -1421h-104l20 145q-192 -165 -404 -165h-3q-98 0 -147.5 38.5t-49.5 128.5zM199 162q0 -45 21.5 -62.5t70.5 -17.5q92 0 204 54.5t212 142.5l106 604q-123 32 -233 32h-7 q-139 0 -203.5 -61t-93.5 -225l-71 -408q-6 -37 -6 -59z" />
<glyph unicode="e" horiz-adv-x="907" d="M84 205q0 41 10 98l60 336q35 193 138 286t294 93q123 0 193.5 -60.5t70.5 -171.5q0 -119 -87 -191.5t-292 -129.5l-244 -68l-24 -137q-4 -37 -4 -53q0 -68 35.5 -97.5t136.5 -29.5q145 0 352 96l29 -88q-205 -108 -393 -108h-3q-272 0 -272 225zM246 504l231 61 q139 37 200.5 90.5t61.5 132.5q0 131 -164 132q-133 0 -206.5 -71t-100.5 -218z" />
<glyph unicode="f" horiz-adv-x="702" d="M6 -350q63 53 94 109.5t50 158.5l172 981h-187l17 98h188l33 189q45 260 291 260q104 0 194 -39l-24 -88q-88 29 -168 29q-82 0 -123 -40t-56 -122l-32 -189h305l-27 -98h-297l-174 -995q-36 -209 -188 -328z" />
<glyph unicode="g" horiz-adv-x="1028" d="M23 -336l28 92q188 -78 375 -78q106 0 147 35t58 135l59 334q-188 -162 -401 -162q-98 0 -147.5 39t-49.5 129q0 33 6 74l68 387q35 197 131 283t293 86q180 0 352 -57l-201 -1135q-27 -143 -95 -196.5t-228 -53.5q-84 0 -198 25.5t-197 62.5zM207 203q0 -45 21.5 -62.5 t70.5 -17.5q92 0 204 54t212 142l100 572q-105 24 -232 24h-10q-139 0 -203.5 -61t-93.5 -225l-63 -367q-6 -37 -6 -59z" />
<glyph unicode="h" d="M82 0l248 1405l116 16l-98 -565q88 59 216 110.5t210 51.5q176 0 176 -164q0 -31 -6 -63l-139 -791h-115l144 811q4 25 4 33q0 67 -82 67h-2q-74 0 -197 -52t-229 -120l-131 -739h-115z" />
<glyph unicode="i" horiz-adv-x="462" d="M82 0l174 989l117 17l-176 -1006h-115zM289 1174l39 231l118 16l-40 -231z" />
<glyph unicode="j" horiz-adv-x="452" d="M-168 -340q156 125 191.5 166t48.5 119l184 1044l119 17l-193 -1084q-16 -94 -59 -148.5t-229 -197.5zM289 1174l39 231l118 16l-40 -231z" />
<glyph unicode="k" horiz-adv-x="925" d="M82 0l248 1405l116 16l-249 -1421h-115zM350 506l457 506l111 -41l-441 -469l299 -502h-127z" />
<glyph unicode="l" horiz-adv-x="462" d="M82 0l248 1405l116 16l-249 -1421h-115z" />
<glyph unicode="m" horiz-adv-x="1669" d="M82 0l174 989l100 17l-16 -154q84 57 217 111.5t217 54.5q176 0 176 -166q82 59 215 112.5t217 53.5q176 0 177 -164q0 -31 -7 -63l-139 -791h-115l144 811q4 25 4 33q0 67 -82 67h-2q-74 0 -198 -52t-228 -120l-131 -739h-115l144 811q4 25 4 33q0 67 -82 67h-2 q-74 0 -197 -52t-229 -120l-131 -739h-115z" />
<glyph unicode="n" d="M82 0l174 989l100 17l-16 -154q84 57 217 111.5t217 54.5q176 0 176 -164q0 -31 -6 -63l-139 -791h-115l144 811q4 25 4 33q0 67 -82 67h-2q-74 0 -197 -52t-229 -120l-131 -739h-115z" />
<glyph unicode="o" horiz-adv-x="1015" d="M84 258q0 49 8 90l53 303q31 176 135.5 271.5t313.5 95.5q162 0 247 -76t85 -205q0 -23 -8 -75l-58 -326q-31 -174 -136 -265t-312 -91q-168 0 -248 75.5t-80 202.5zM199 262q0 -90 54 -135t177 -45q268 0 315 256l58 324q6 37 6 69q0 184 -234 184q-268 0 -315 -264 l-55 -313q-6 -39 -6 -76z" />
<glyph unicode="p" horiz-adv-x="1038" d="M8 -420l250 1417h104l-20 -145q195 166 408 166q198 0 198 -166q0 -22 -8 -76l-88 -497q-29 -160 -108.5 -229.5t-247.5 -69.5q-133 0 -295 38l-76 -421zM219 123q170 -41 299 -41q102 0 151.5 47t69.5 158l86 489q6 37 6 62q0 45 -21.5 61t-70.5 16q-92 0 -203.5 -54 t-211.5 -142z" />
<glyph unicode="q" horiz-adv-x="1028" d="M84 147q0 33 6 74l76 428q35 197 131 283t293 86q180 0 352 -57l-242 -1364l-116 -17l98 561q-187 -161 -398 -161h-3q-98 0 -147.5 38.5t-49.5 128.5zM199 162q0 -45 21.5 -62.5t70.5 -17.5q92 0 204 54.5t212 142.5l108 612q-105 24 -232 24h-10q-139 0 -203.5 -61 t-93.5 -225l-71 -408q-6 -37 -6 -59z" />
<glyph unicode="r" horiz-adv-x="616" d="M84 0l172 989l106 17l-24 -177q156 117 297 189l6 -113q-119 -70 -319 -200l-123 -705h-115z" />
<glyph unicode="s" horiz-adv-x="835" d="M51 31l25 94q133 -43 264 -43q127 0 171 29.5t60 134.5q3 20 3 37q0 47 -24 74q-33 36 -163 106q-152 80 -198 141q-33 43 -33 112q0 29 6 62q20 125 93 182.5t253 57.5q150 0 276 -41l-20 -96q-131 34 -255 34h-7q-125 0 -167 -27.5t-59 -119.5q-5 -27 -5 -49 q-1 -45 19 -68q28 -35 144 -98q180 -98 224 -154q30 -39 30 -106q0 -30 -6 -66q-23 -137 -91.5 -192t-254.5 -55q-166 0 -285 51z" />
<glyph unicode="t" horiz-adv-x="737" d="M125 899l16 98h193l43 244l117 16l-45 -260h299l-23 -98h-295l-129 -735q-4 -29 -4 -37q0 -29 15.5 -39t52.5 -10q86 0 198 47l29 -78q-119 -67 -248 -67q-164 0 -164 133q0 10 4 39l131 747h-190z" />
<glyph unicode="u" d="M102 143q0 29 7 64l137 782l119 17l-146 -820q-4 -25 -4 -36q0 -63 84 -64q74 0 196.5 52t229.5 120l129 731l119 17l-178 -1006h-99l17 145q-94 -66 -219 -115.5t-215 -49.5q-176 0 -177 163z" />
<glyph unicode="v" horiz-adv-x="866" d="M117 989l110 17l150 -930l317 629q41 82 41 163q0 55 -20 121l119 17q18 -70 18 -134q0 -86 -37 -172l-360 -700h-174z" />
<glyph unicode="w" horiz-adv-x="1376" d="M129 989l107 17q90 -459 90 -936l387 710l-39 209l98 17l186 -936l232 571q35 90 35 203q0 74 -17 145l109 17q14 -86 14 -156q0 -123 -39 -229l-252 -621h-176l-123 629l-340 -629h-174q-2 590 -98 989z" />
<glyph unicode="x" horiz-adv-x="890" d="M-43 0l422 502l-236 487l107 17l207 -422l340 413h135l-426 -505l244 -492h-123l-197 401l-338 -401h-135z" />
<glyph unicode="y" horiz-adv-x="856" d="M-29 -332q125 45 207 119t160 213h-57l-164 989l110 17l150 -930l317 629q45 88 45 159q0 43 -24 125l116 17q20 -74 21 -138q0 -88 -37 -168l-360 -700q-98 -174 -189.5 -268t-263.5 -152z" />
<glyph unicode="z" horiz-adv-x="888" d="M51 94l662 811h-516l14 92h631v-94l-662 -811h541l-14 -92h-650z" />
<glyph unicode="{" horiz-adv-x="622" d="M127 -170q0 29 6 66l113 630q4 25 4 31q0 31 -18.5 43t-65.5 12h-31l19 103h30q57 0 79 19.5t30 66.5l110 631q18 111 67.5 148.5t156.5 37.5h151l-18 -102h-148q-45 0 -64.5 -17.5t-27.5 -60.5l-112 -633q-25 -139 -144 -141q96 -2 96 -97q0 -12 -4 -45l-110 -637 q-4 -20 -4 -30q0 -25 15 -34t54 -9h148l-19 -103h-151q-86 0 -124 27.5t-38 93.5z" />
<glyph unicode="|" horiz-adv-x="505" d="M246 -430v2048h76v-2048h-76z" />
<glyph unicode="}" horiz-adv-x="616" d="M-104 -291l18 103h147q45 0 64.5 17t28.5 60l112 633q25 139 144 142q-96 6 -97 96q0 16 4 45l111 637q4 20 4 28q0 45 -70 46h-147l18 102h152q86 0 124 -27.5t38 -93.5q0 -29 -6 -65l-113 -631q-2 -12 -2 -31q0 -31 17.5 -43t64.5 -12h31l-19 -103h-31 q-55 0 -77.5 -19.5t-30.5 -66.5l-111 -630q-18 -111 -67 -149t-156 -38h-151z" />
<glyph unicode="~" horiz-adv-x="1003" d="M98 467q111 223 273 223q51 0 99 -27.5t80 -59.5t74 -59.5t81 -27.5q63 0 98 40t76 124q6 12 8 18l69 -41q-25 -53 -43 -85.5t-48.5 -69.5t-70.5 -54.5t-91.5 -17.5t-99.5 27.5t-79.5 59.5t-74.5 59.5t-84 27.5q-59 0 -104.5 -45t-92.5 -137z" />
<glyph unicode="&#xa1;" horiz-adv-x="514" d="M37 -403l125 710l84 338h65l-35 -338l-124 -710h-115zM250 821l31 176h122l-30 -176h-123z" />
<glyph unicode="&#xa2;" horiz-adv-x="851" d="M111 369q0 31 6 61l71 404q35 188 114 272t239 94l32 186h111l-33 -186q106 -10 195 -39l-25 -96q-121 35 -235 35q-137 0 -197.5 -60.5t-89.5 -226.5l-70 -397q-4 -33 -4 -45q0 -57 36 -81t112 -24q154 0 323 70l19 -96q-115 -57 -246 -70l-33 -190h-110l32 184 q-113 0 -180 53t-67 152z" />
<glyph unicode="&#xa3;" horiz-adv-x="1077" d="M96 0l17 104q309 227 309 455q0 39 -8 72h-240l12 98h199q-61 123 -61 266q0 174 97 261t318 87q170 0 297 -45l-22 -94q-129 37 -269 37q-172 0 -239.5 -56.5t-67.5 -191.5q0 -127 66 -264h401l-16 -98h-359q6 -33 7 -70q0 -231 -267 -459h604l-16 -102h-762z" />
<glyph unicode="&#xa4;" horiz-adv-x="1093" d="M119 266l133 113q-20 41 -21 94q0 31 7 66l51 295q16 100 65 161l-104 129l86 74l108 -135q84 37 205 37q113 0 180 -45l158 133l68 -82l-156 -131q20 -45 21 -90q0 -23 -7 -54l-51 -292q-20 -115 -63 -166l102 -125l-86 -74l-108 131q-72 -33 -203 -33q-111 0 -176 33 l-144 -121zM344 485q0 -57 38 -83.5t140 -26.5q121 0 168 44t66 146l43 242q8 53 8 72q0 61 -39 89.5t-137 28.5q-125 0 -171.5 -43t-64.5 -147l-43 -242q-8 -57 -8 -80z" />
<glyph unicode="&#xa5;" horiz-adv-x="1081" d="M76 289l16 86h359l10 49l-70 217h-254l17 86h211l-187 596h115l246 -784l508 784h133l-396 -596h203l-16 -86h-242l-156 -235l-6 -31h359l-17 -86h-356l-51 -289h-117l51 289h-360z" />
<glyph unicode="&#xa6;" horiz-adv-x="505" d="M246 422h76v-852h-76v852zM246 766v852h76v-852h-76z" />
<glyph unicode="&#xa7;" horiz-adv-x="1073" d="M225 928q0 141 17 233q23 125 84 174t213 49q137 0 276 -55l-22 -90q-162 47 -265 47q-88 0 -122.5 -27.5t-49.5 -105.5q-18 -109 -18 -233q0 -375 127 -897l-109 -23q-131 504 -131 928zM299 -326l23 90q162 -47 264 -47q88 0 122.5 28t49.5 105q18 109 18 234 q0 375 -127 897l109 23q131 -504 131 -928q0 -141 -17 -234q-23 -125 -84 -174t-213 -49q-137 0 -276 55z" />
<glyph unicode="&#xa8;" horiz-adv-x="792" d="M266 1163l27 142l123 4l-25 -142zM614 1163l27 142l123 4l-27 -142z" />
<glyph unicode="&#xa9;" horiz-adv-x="1656" d="M154 682q0 301 189 502.5t511 201.5t511 -201.5t189 -502.5t-189 -501.5t-511 -200.5t-511 200.5t-189 501.5zM248 682q0 -264 165 -440t441 -176t441 176t165 440t-166 441t-440 177t-440 -177t-166 -441zM614 535v294q0 111 54.5 160t189.5 49q109 0 205 -28l-12 -76 q-96 22 -180 22h-7q-98 0 -131 -25.5t-33 -103.5v-290q0 -78 33 -103.5t131 -25.5q86 0 187 22l12 -76q-96 -28 -205 -28q-135 0 -189.5 49t-54.5 160z" />
<glyph unicode="&#xaa;" horiz-adv-x="790" d="M225 901q0 27 4 47l45 248q23 127 75 178t181 51q117 0 220 -43l-103 -575h-80l11 70q-109 -82 -226 -82q-127 0 -127 106zM311 909q0 -39 45 -39q115 1 234 105l63 358q-61 14 -129 15q-80 0 -114.5 -32t-53.5 -130l-41 -242q-4 -20 -4 -35z" />
<glyph unicode="&#xab;" horiz-adv-x="956" d="M104 500l326 395l84 -74l-281 -332l162 -331l-102 -52zM481 500l326 395l84 -74l-281 -332l162 -331l-102 -52z" />
<glyph unicode="&#xac;" horiz-adv-x="1144" d="M123 449v102h827v-471h-106v369h-721z" />
<glyph unicode="&#xad;" horiz-adv-x="733" d="M143 524l17 101h471l-17 -101h-471z" />
<glyph unicode="&#xae;" horiz-adv-x="980" d="M225 1054.5q0 157.5 101.5 264t267.5 106.5t266.5 -106.5t100.5 -264t-100.5 -264t-266.5 -106.5t-267.5 106.5t-101.5 264zM293 1055q0 -131 80 -218t221 -87t220 87t79 218q0 133 -79 220t-220 87t-221 -88t-80 -219zM485 895v336h129q100 0 101 -86v-43q0 -68 -51 -86 l92 -121h-56l-86 113h-84v-113h-45zM530 1049h86q53 0 54 45v51q0 45 -56 45h-84v-141z" />
<glyph unicode="&#xaf;" horiz-adv-x="782" d="M266 1167l17 90h479l-17 -90h-479z" />
<glyph unicode="&#xb0;" horiz-adv-x="686" d="M236 1087q0 109 68.5 182.5t182.5 73.5q84 0 131.5 -48t47.5 -124q0 -113 -64.5 -184.5t-185.5 -71.5q-84 0 -132 48.5t-48 123.5zM307 1096q0 -119 121 -119q84 0 126 55t42 131q0 53 -30 86t-89 33q-76 0 -123 -56.5t-47 -129.5z" />
<glyph unicode="&#xb1;" horiz-adv-x="1099" d="M133 0v102h828v-102h-828zM133 610v103h359v366h110v-366h359v-103h-359v-366h-110v366h-359z" />
<glyph unicode="&#xb2;" horiz-adv-x="772" d="M154 500l6 80l221 227q88 90 151 164q59 70 70 131l8 49q4 25 4 31q0 41 -30.5 57t-100.5 16q-82 0 -180 -26l-14 84q106 31 206.5 30.5t158 -38t57.5 -113.5q0 -10 -4 -39l-9 -53q-8 -53 -26.5 -92t-75.5 -101l-299 -317h324l-15 -90h-452z" />
<glyph unicode="&#xb3;" horiz-adv-x="796" d="M174 514l21 80q96 -25 186 -25q100 0 135 26t47 91l15 80q2 10 2 27q0 79 -112 79h-3h-168l14 89h170q63 0 91 23.5t36 72.5l19 104q2 14 2 29q0 39 -30 53t-93 14q-84 0 -180 -18l-4 80q83 24 186 24h8q209 0 209 -151q0 -12 -4 -41l-16 -92q-10 -55 -34 -87t-79 -54 q84 -33 84 -117q0 -10 -4 -35l-15 -80q-20 -113 -80.5 -158t-201.5 -45q-98 0 -201 31z" />
<glyph unicode="&#xb4;" horiz-adv-x="598" d="M256 1219q141 68 287 165l49 -79q-127 -88 -291 -166z" />
<glyph unicode="&#xb5;" d="M0 -403l104 593l142 799l119 17l-146 -822q-4 -25 -4 -39q2 -59 84 -59q74 0 196.5 52t229.5 120l129 731l119 17l-178 -1006h-99l17 145q-94 -66 -219 -115.5t-215 -49.5q-63 0 -93 22l-71 -405h-115z" />
<glyph unicode="&#xb6;" horiz-adv-x="999" d="M199 874q0 221 135 355.5t354 134.5l-145 -823q-154 2 -249 94t-95 239zM346 -350q147 125 185 168t44 73l259 1473h110l-262 -1485q-10 -57 -49.5 -100t-229.5 -203z" />
<glyph unicode="&#xb7;" horiz-adv-x="491" d="M195 567l30 176h123l-31 -176h-122z" />
<glyph unicode="&#xb8;" horiz-adv-x="632" d="M10 -395l23 71q65 -22 124 -22h5q133 0 133 88q0 53 -88 53q-55 0 -92 -6l-13 29l62 182h82l-47 -145q31 6 61 6q57 0 92 -29t35 -80q0 -84 -58.5 -130t-164.5 -46q-84 0 -154 29z" />
<glyph unicode="&#xb9;" horiz-adv-x="694" d="M256 1198l246 125h80l-148 -827h-98l125 710l-174 -80z" />
<glyph unicode="&#xba;" horiz-adv-x="790" d="M246 961q0 16 4 53l35 194q20 109 80.5 163t189.5 54q94 0 149.5 -49t55.5 -133q0 -14 -4 -47l-33 -186q-18 -104 -79.5 -159.5t-194.5 -55.5q-203 0 -203 166zM326 969q0 -98 133 -99q153 1 178 142l35 196q4 29 4 37q0 102 -131 103q-82 0 -125 -34t-58 -116l-32 -188 q-4 -29 -4 -41z" />
<glyph unicode="&#xbb;" horiz-adv-x="956" d="M72 190l280 332l-162 332l103 51l188 -393l-325 -395zM449 190l280 332l-162 332l103 51l188 -393l-326 -395z" />
<glyph unicode="&#xbc;" horiz-adv-x="1689" d="M256 1198l246 125h80l-148 -827h-98l125 710l-174 -80zM381 -20l782 1396l70 -39l-780 -1400zM868 186l11 97l444 544h129l-98 -555h121l-15 -86h-121l-32 -186h-95l33 186h-377zM981 272h279l79 457z" />
<glyph unicode="&#xbd;" horiz-adv-x="1703" d="M256 1198l246 125h80l-148 -827h-98l125 710l-174 -80zM381 -20l782 1396l70 -39l-780 -1400zM993 0l6 80l222 227q88 90 151 164q59 70 70 131l8 49q4 25 4 31q0 41 -30.5 57.5t-100.5 16.5q-82 0 -180 -27l-15 84q106 31 207 31t158 -38t57 -114q0 -10 -4 -39l-8 -53 q-8 -53 -26.5 -92t-75.5 -100l-299 -318h323l-14 -90h-453z" />
<glyph unicode="&#xbe;" horiz-adv-x="1763" d="M174 514l21 80q96 -25 186 -25q100 0 135 26t47 91l15 80q2 10 2 27q0 79 -112 79h-3h-168l14 89h170q63 0 91 23.5t36 72.5l19 104q2 14 2 29q0 39 -30 53t-93 14q-84 0 -180 -18l-4 80q83 24 186 24h8q209 0 209 -151q0 -12 -4 -41l-16 -92q-10 -55 -34 -87t-79 -54 q84 -33 84 -117q0 -10 -4 -35l-15 -80q-20 -113 -80.5 -158t-201.5 -45q-98 0 -201 31zM455 -20l782 1396l70 -39l-781 -1400zM942 186l10 97l445 544h129l-99 -555h121l-14 -86h-121l-33 -186h-94l33 186h-377zM1055 272h278l80 457z" />
<glyph unicode="&#xbf;" horiz-adv-x="944" d="M45 -195q0 66 14 140q25 135 49.5 196.5t66.5 103.5t155 122l241 168l58 -89l-256 -174q-106 -74 -139 -128t-60 -201q-16 -92 -16 -138q0 -76 48 -101.5t181 -25.5q123 0 266 31l13 -100q-152 -33 -301 -33q-176 0 -248 53.5t-72 175.5zM555 821l31 176h123l-31 -176 h-123z" />
<glyph unicode="&#xc0;" horiz-adv-x="1261" d="M-2 0l700 1364h176l230 -1364h-119l-59 360h-617l-190 -360h-121zM362 463h543l-125 840zM580 1626l61 80q96 -76 213 -150l-51 -77q-111 61 -223 147z" />
<glyph unicode="&#xc1;" horiz-adv-x="1261" d="M-2 0l700 1364h176l230 -1364h-119l-59 360h-617l-190 -360h-121zM362 463h543l-125 840zM739 1552q125 80 213 150l60 -80q-119 -90 -221 -147z" />
<glyph unicode="&#xc2;" horiz-adv-x="1261" d="M-2 0l700 1364h176l230 -1364h-119l-59 360h-617l-190 -360h-121zM362 463h543l-125 840zM569 1556q113 61 250 150l223 -156l-43 -71q-102 55 -190 110l-201 -110z" />
<glyph unicode="&#xc3;" horiz-adv-x="1261" d="M-2 0l700 1364h176l230 -1364h-119l-59 360h-617l-190 -360h-121zM362 463h543l-125 840zM539 1548q72 109 180 109q39 0 106.5 -36t102.5 -36q47 0 102 49l49 -49q-65 -94 -155 -94q-43 0 -118 36t-101 36q-49 0 -121 -64z" />
<glyph unicode="&#xc4;" horiz-adv-x="1261" d="M-2 0l700 1364h176l230 -1364h-119l-59 360h-617l-190 -360h-121zM362 463h543l-125 840zM563 1503l23 123h131l-23 -123h-131zM920 1503l22 123h131l-22 -123h-131z" />
<glyph unicode="&#xc5;" horiz-adv-x="1261" d="M-2 0l700 1364h176l230 -1364h-119l-59 360h-617l-190 -360h-121zM362 463h543l-125 840zM702 1563q0 68 40 108.5t112 40.5q51 0 80 -27.5t29 -68.5q0 -68 -38 -112t-114 -44q-51 0 -80 28t-29 75zM768 1571q0 -53 51 -53q76 0 76 90q0 49 -49 49q-35 0 -56.5 -23.5 t-21.5 -62.5z" />
<glyph unicode="&#xc6;" horiz-adv-x="1710" d="M-2 0l700 1364h1037l-19 -104h-825l84 -512h606l-18 -105h-570l90 -539h430l-16 -104h-512l-57 360h-619l-190 -360h-121zM362 463h545l-127 840z" />
<glyph unicode="&#xc7;" horiz-adv-x="1038" d="M127 375l109 614q37 211 156.5 303t363.5 92q168 0 317 -38l-20 -101q-154 35 -305 35q-186 0 -277.5 -68.5t-120.5 -234.5l-106 -600q-8 -43 -8 -88q0 -106 69.5 -155.5t231.5 -49.5q137 0 313 29l4 -101q-156 -29 -326 -32l-41 -125q31 6 62 6q57 0 92 -29t35 -80 q0 -84 -58.5 -130t-164.5 -46q-84 0 -154 29l23 71q65 -22 124 -22h5q133 0 133 88q0 53 -88 53q-55 0 -93 -6l-12 29l55 164q-329 23 -329 288q0 43 10 105z" />
<glyph unicode="&#xc8;" horiz-adv-x="1073" d="M92 0l240 1364h766l-19 -104h-647l-90 -512h602l-18 -105h-602l-97 -539h650l-17 -104h-768zM524 1626l62 80q96 -76 213 -150l-51 -77q-111 61 -224 147z" />
<glyph unicode="&#xc9;" horiz-adv-x="1073" d="M92 0l240 1364h766l-19 -104h-647l-90 -512h602l-18 -105h-602l-97 -539h650l-17 -104h-768zM645 1552q125 80 213 150l60 -80q-120 -90 -222 -147z" />
<glyph unicode="&#xca;" horiz-adv-x="1073" d="M92 0l240 1364h766l-19 -104h-647l-90 -512h602l-18 -105h-602l-97 -539h650l-17 -104h-768zM489 1556q113 61 250 150l224 -156l-43 -71q-102 55 -191 110l-201 -110z" />
<glyph unicode="&#xcb;" horiz-adv-x="1073" d="M92 0l240 1364h766l-19 -104h-647l-90 -512h602l-18 -105h-602l-97 -539h650l-17 -104h-768zM483 1503l23 123h131l-23 -123h-131zM840 1503l22 123h131l-22 -123h-131z" />
<glyph unicode="&#xcc;" horiz-adv-x="505" d="M102 0l240 1364h117l-240 -1364h-117zM209 1626l61 80q96 -76 213 -150l-51 -77q-111 61 -223 147z" />
<glyph unicode="&#xcd;" horiz-adv-x="505" d="M102 0l240 1364h117l-240 -1364h-117zM356 1552q127 80 213 150l60 -80q-119 -90 -221 -147z" />
<glyph unicode="&#xce;" horiz-adv-x="505" d="M102 0l240 1364h117l-240 -1364h-117zM193 1556q113 61 249 150l224 -156l-43 -71q-102 55 -191 110l-201 -110z" />
<glyph unicode="&#xcf;" horiz-adv-x="505" d="M102 0l240 1364h117l-240 -1364h-117zM186 1503l23 123h131l-23 -123h-131zM543 1503l22 123h131l-22 -123h-131z" />
<glyph unicode="&#xd0;" horiz-adv-x="1241" d="M78 645l18 98h158l108 621h445q367 0 367 -305q0 -45 -11 -107l-100 -571q-37 -207 -138.5 -294t-340.5 -87h-461l113 645h-158zM258 104h334q182 0 256 68t102 225l99 557q10 61 10 103q0 104 -61.5 153.5t-200.5 49.5h-334l-92 -517h288l-18 -98h-287z" />
<glyph unicode="&#xd1;" horiz-adv-x="1310" d="M92 0l240 1364h176l430 -1258l221 1258h115l-240 -1364h-176l-430 1255l-221 -1255h-115zM573 1548q72 109 181 109q41 0 108.5 -36t100.5 -36q47 0 102 49l49 -49q-66 -94 -156 -94q-43 0 -117.5 36t-101.5 36q-49 0 -121 -64z" />
<glyph unicode="&#xd2;" horiz-adv-x="1257" d="M131 397l100 566q41 227 165 324t380 97q201 0 307.5 -96t106.5 -246q0 -27 -8 -79l-103 -574q-35 -197 -160 -303t-387 -106q-409 0 -409 319q0 55 8 98zM240 307q0 -111 70.5 -167t240.5 -56q197 0 290 75.5t122 229.5l102 576q8 39 8 84q0 231 -311 231 q-195 0 -291 -76t-125 -241l-98 -557q-8 -47 -8 -99zM563 1626l62 80q96 -76 213 -150l-52 -77q-111 61 -223 147z" />
<glyph unicode="&#xd3;" horiz-adv-x="1257" d="M131 397l100 566q41 227 165 324t380 97q201 0 307.5 -96t106.5 -246q0 -27 -8 -79l-103 -574q-35 -197 -160 -303t-387 -106q-409 0 -409 319q0 55 8 98zM240 307q0 -111 70.5 -167t240.5 -56q197 0 290 75.5t122 229.5l102 576q8 39 8 84q0 231 -311 231 q-195 0 -291 -76t-125 -241l-98 -557q-8 -47 -8 -99zM733 1552q127 80 213 150l60 -80q-120 -90 -222 -147z" />
<glyph unicode="&#xd4;" horiz-adv-x="1257" d="M131 397l100 566q41 227 165 324t380 97q201 0 307.5 -96t106.5 -246q0 -27 -8 -79l-103 -574q-35 -197 -160 -303t-387 -106q-409 0 -409 319q0 55 8 98zM240 307q0 -111 70.5 -167t240.5 -56q197 0 290 75.5t122 229.5l102 576q8 39 8 84q0 231 -311 231 q-195 0 -291 -76t-125 -241l-98 -557q-8 -47 -8 -99zM561 1556q113 61 250 150l223 -156l-43 -71q-102 55 -190 110l-201 -110z" />
<glyph unicode="&#xd5;" horiz-adv-x="1257" d="M131 397l100 566q41 227 165 324t380 97q201 0 307.5 -96t106.5 -246q0 -27 -8 -79l-103 -574q-35 -197 -160 -303t-387 -106q-409 0 -409 319q0 55 8 98zM240 307q0 -111 70.5 -167t240.5 -56q197 0 290 75.5t122 229.5l102 576q8 39 8 84q0 231 -311 231 q-195 0 -291 -76t-125 -241l-98 -557q-8 -47 -8 -99zM524 1548q72 109 181 109q41 0 108.5 -36t99.5 -36q47 0 103 49l49 -49q-66 -94 -156 -94q-43 0 -117.5 36t-101.5 36q-49 0 -121 -64z" />
<glyph unicode="&#xd6;" horiz-adv-x="1257" d="M131 397l100 566q41 227 165 324t380 97q201 0 307.5 -96t106.5 -246q0 -27 -8 -79l-103 -574q-35 -197 -160 -303t-387 -106q-409 0 -409 319q0 55 8 98zM240 307q0 -111 70.5 -167t240.5 -56q197 0 290 75.5t122 229.5l102 576q8 39 8 84q0 231 -311 231 q-195 0 -291 -76t-125 -241l-98 -557q-8 -47 -8 -99zM553 1503l22 123h132l-23 -123h-131zM909 1503l23 123h131l-23 -123h-131z" />
<glyph unicode="&#xd7;" horiz-adv-x="1107" d="M164 174l321 326l-321 325l72 72l323 -324l324 324l71 -72l-321 -325l321 -326l-71 -72l-324 324l-323 -324z" />
<glyph unicode="&#xd8;" horiz-adv-x="1257" d="M72 -76l123 166q-72 78 -72 211q0 53 8 96l100 566q41 227 165 324t380 97q188 0 301 -90l142 193l63 -47l-152 -205q59 -84 60 -193q0 -27 -8 -79l-103 -574q-35 -197 -159.5 -303t-387.5 -106q-176 0 -276 61l-121 -164zM240 307q0 -72 26 -119l748 1020 q-78 72 -252 72q-195 0 -291 -76t-125 -241l-98 -557q-8 -48 -8 -99zM322 131q76 -47 229 -47q197 0 290 75.5t122 229.5l102 576q8 39 8 84q0 41 -14 88z" />
<glyph unicode="&#xd9;" horiz-adv-x="1286" d="M143 307q0 37 9 90l170 967h116l-172 -977q-8 -57 -8 -82q0 -113 74 -167t233 -54q354 0 408 311l170 969h117l-173 -981q-35 -193 -157.5 -298t-382.5 -105q-205 0 -304.5 89t-99.5 238zM612 1626l62 80q96 -76 213 -150l-51 -77q-111 61 -224 147z" />
<glyph unicode="&#xda;" horiz-adv-x="1286" d="M143 307q0 37 9 90l170 967h116l-172 -977q-8 -57 -8 -82q0 -113 74 -167t233 -54q354 0 408 311l170 969h117l-173 -981q-35 -193 -157.5 -298t-382.5 -105q-205 0 -304.5 89t-99.5 238zM729 1552q127 80 213 150l59 -80q-119 -90 -221 -147z" />
<glyph unicode="&#xdb;" horiz-adv-x="1286" d="M143 307q0 37 9 90l170 967h116l-172 -977q-8 -57 -8 -82q0 -113 74 -167t233 -54q354 0 408 311l170 969h117l-173 -981q-35 -193 -157.5 -298t-382.5 -105q-205 0 -304.5 89t-99.5 238zM586 1556q113 61 250 150l223 -156l-43 -71q-102 55 -191 110l-200 -110z" />
<glyph unicode="&#xdc;" horiz-adv-x="1286" d="M143 307q0 37 9 90l170 967h116l-172 -977q-8 -57 -8 -82q0 -113 74 -167t233 -54q354 0 408 311l170 969h117l-173 -981q-35 -193 -157.5 -298t-382.5 -105q-205 0 -304.5 89t-99.5 238zM555 1503l23 123h131l-23 -123h-131zM911 1503l23 123h131l-23 -123h-131z" />
<glyph unicode="&#xdd;" horiz-adv-x="1071" d="M166 1364h115l258 -825l534 825h133l-633 -958l-71 -406h-117l76 424zM623 1552q127 80 213 150l59 -80q-119 -90 -221 -147z" />
<glyph unicode="&#xde;" horiz-adv-x="1124" d="M92 0l240 1364h117l-43 -250h344q323 0 323 -241q0 -26 -8 -78l-37 -209q-20 -111 -58 -174.5t-128 -101.5t-242 -38h-342l-49 -272h-117zM276 377h345q143 0 206.5 45t83.5 164l39 219q6 31 6 57q0 80 -51 114t-172 34h-346z" />
<glyph unicode="&#xdf;" horiz-adv-x="1202" d="M-61 -350q63 55 93 108.5t48 159.5l207 1174q33 188 129 271t291 83q147 0 228 -69.5t81 -178.5q0 -88 -26.5 -155.5t-106.5 -176.5q-106 -143 -107 -221q0 -27 22.5 -56.5t102.5 -86.5q86 -61 116 -99t30 -94q0 -176 -70 -252.5t-277 -76.5q-117 0 -204 36l24 97 q96 -31 201 -31q117 0 162 41t45 162q0 39 -27 68.5t-108 88.5q-131 94 -131 195q0 109 98 244q90 123 115.5 182t25.5 129q0 72 -54 114t-159 42q-127 0 -195.5 -60.5t-95.5 -214.5l-204 -1167q-20 -123 -61.5 -192.5t-129.5 -137.5z" />
<glyph unicode="&#xe0;" horiz-adv-x="1021" d="M84 147q0 33 6 74l76 428q37 199 131 284t293 85q166 0 344 -66l-168 -952h-104l20 145q-194 -165 -399 -165h-2q-98 0 -147.5 38.5t-49.5 128.5zM199 162q0 -45 21.5 -62.5t70.5 -17.5q188 0 409 197l107 604q-108 32 -227 32h-7q-139 0 -203.5 -61t-93.5 -225l-71 -408 q-6 -37 -6 -59zM465 1300l63 78q74 -66 217 -164l-55 -75q-145 90 -225 161z" />
<glyph unicode="&#xe1;" horiz-adv-x="1021" d="M84 147q0 33 6 74l76 428q37 199 131 284t293 85q166 0 344 -66l-168 -952h-104l20 145q-194 -165 -399 -165h-2q-98 0 -147.5 38.5t-49.5 128.5zM199 162q0 -45 21.5 -62.5t70.5 -17.5q188 0 409 197l107 604q-108 32 -227 32h-7q-139 0 -203.5 -61t-93.5 -225l-71 -408 q-6 -37 -6 -59zM539 1219q141 68 286 165l49 -79q-126 -88 -290 -166z" />
<glyph unicode="&#xe2;" horiz-adv-x="1021" d="M84 147q0 33 6 74l76 428q37 199 131 284t293 85q166 0 344 -66l-168 -952h-104l20 145q-194 -165 -399 -165h-2q-98 0 -147.5 38.5t-49.5 128.5zM199 162q0 -45 21.5 -62.5t70.5 -17.5q188 0 409 197l107 604q-108 32 -227 32h-7q-139 0 -203.5 -61t-93.5 -225l-71 -408 q-6 -37 -6 -59zM393 1194q131 78 269 176q78 -76 229 -182l-47 -70q-109 66 -193 131q-27 -18 -215 -131z" />
<glyph unicode="&#xe3;" horiz-adv-x="1021" d="M84 147q0 33 6 74l76 428q37 199 131 284t293 85q166 0 344 -66l-168 -952h-104l20 145q-194 -165 -399 -165h-2q-98 0 -147.5 38.5t-49.5 128.5zM199 162q0 -45 21.5 -62.5t70.5 -17.5q188 0 409 197l107 604q-108 32 -227 32h-7q-139 0 -203.5 -61t-93.5 -225l-71 -408 q-6 -37 -6 -59zM377 1200q72 109 180 109q41 0 108.5 -36t100.5 -36q47 0 102 49l50 -49q-66 -94 -156 -94q-43 0 -118 35.5t-101 35.5q-49 0 -121 -63z" />
<glyph unicode="&#xe4;" horiz-adv-x="1021" d="M84 147q0 33 6 74l76 428q37 199 131 284t293 85q166 0 344 -66l-168 -952h-104l20 145q-194 -165 -399 -165h-2q-98 0 -147.5 38.5t-49.5 128.5zM199 162q0 -45 21.5 -62.5t70.5 -17.5q188 0 409 197l107 604q-108 32 -227 32h-7q-139 0 -203.5 -61t-93.5 -225l-71 -408 q-6 -37 -6 -59zM414 1163l26 142l123 4l-24 -142zM762 1163l26 142l123 4l-26 -142z" />
<glyph unicode="&#xe5;" horiz-adv-x="1021" d="M84 147q0 33 6 74l76 428q37 199 131 284t293 85q166 0 344 -66l-168 -952h-104l20 145q-194 -165 -399 -165h-2q-98 0 -147.5 38.5t-49.5 128.5zM199 162q0 -45 21.5 -62.5t70.5 -17.5q188 0 409 197l107 604q-108 32 -227 32h-7q-139 0 -203.5 -61t-93.5 -225l-71 -408 q-6 -37 -6 -59zM528 1214q0 70 41 112t115 42q51 0 82 -28.5t31 -71.5q0 -68 -41 -114t-115 -46q-53 0 -83 29.5t-30 76.5zM594 1223q0 -57 55 -58q39 0 59.5 28t20.5 67q0 53 -53 53q-35 0 -58.5 -25.5t-23.5 -64.5z" />
<glyph unicode="&#xe6;" horiz-adv-x="1511" d="M55 180q0 195 85 269.5t261 74.5h297l35 199q6 31 6 53q0 76 -51 107.5t-160 31.5q-156 0 -299 -32l-14 92q160 43 326 43q242 0 284 -160q113 160 332 160q133 0 213 -63.5t80 -174.5q0 -184 -151.5 -260t-501.5 -96l-31 -170q-4 -33 -4 -49q0 -125 176 -125 q160 0 373 88l28 -88q-195 -100 -415 -100q-195 0 -250 108q-188 -108 -400 -108h-4q-215 0 -215 200zM170 178q0 -96 143 -96q158 0 338 96q-2 11 -2 25q0 41 13 110l18 109h-291q-123 0 -171 -48t-48 -196zM813 524q305 12 415.5 73.5t110.5 186.5q0 135 -192 136 q-133 0 -208.5 -71t-104.5 -218z" />
<glyph unicode="&#xe7;" horiz-adv-x="817" d="M78 184q0 31 6 62l72 403q37 205 128 287t281 82q135 0 248 -41l-25 -96q-118 34 -229 34h-6q-137 0 -197.5 -60t-89.5 -226l-69 -398q-4 -33 -4 -45q0 -57 35.5 -80.5t111.5 -23.5q154 0 324 70l18 -97q-143 -61 -293 -73l-41 -127q31 6 62 6q57 0 92 -29t35 -80 q0 -84 -59 -130t-165 -46q-84 0 -153 29l22 71q65 -22 124 -22h5q133 0 133 88q0 53 -88 53q-55 0 -92 -6l-12 29l53 162q-104 4 -165.5 57t-61.5 147z" />
<glyph unicode="&#xe8;" horiz-adv-x="907" d="M84 205q0 41 10 98l60 336q35 193 138 286t294 93q123 0 193.5 -60.5t70.5 -171.5q0 -119 -87 -191.5t-292 -129.5l-244 -68l-24 -137q-4 -37 -4 -53q0 -68 35.5 -97.5t136.5 -29.5q145 0 352 96l29 -88q-205 -108 -393 -108h-3q-272 0 -272 225zM246 504l231 61 q139 37 200.5 90.5t61.5 132.5q0 131 -164 132q-133 0 -206.5 -71t-100.5 -218zM350 1300l64 78q74 -66 217 -164l-56 -75q-145 90 -225 161z" />
<glyph unicode="&#xe9;" horiz-adv-x="907" d="M84 205q0 41 10 98l60 336q35 193 138 286t294 93q123 0 193.5 -60.5t70.5 -171.5q0 -119 -87 -191.5t-292 -129.5l-244 -68l-24 -137q-4 -37 -4 -53q0 -68 35.5 -97.5t136.5 -29.5q145 0 352 96l29 -88q-205 -108 -393 -108h-3q-272 0 -272 225zM246 504l231 61 q139 37 200.5 90.5t61.5 132.5q0 131 -164 132q-133 0 -206.5 -71t-100.5 -218zM483 1219q141 68 287 165l49 -79q-127 -88 -291 -166z" />
<glyph unicode="&#xea;" horiz-adv-x="907" d="M84 205q0 41 10 98l60 336q35 193 138 286t294 93q123 0 193.5 -60.5t70.5 -171.5q0 -119 -87 -191.5t-292 -129.5l-244 -68l-24 -137q-4 -37 -4 -53q0 -68 35.5 -97.5t136.5 -29.5q145 0 352 96l29 -88q-205 -108 -393 -108h-3q-272 0 -272 225zM246 504l231 61 q139 37 200.5 90.5t61.5 132.5q0 131 -164 132q-133 0 -206.5 -71t-100.5 -218zM338 1194q131 78 268 176q78 -76 230 -182l-48 -70q-109 66 -192 131q-27 -18 -215 -131z" />
<glyph unicode="&#xeb;" horiz-adv-x="907" d="M84 205q0 41 10 98l60 336q35 193 138 286t294 93q123 0 193.5 -60.5t70.5 -171.5q0 -119 -87 -191.5t-292 -129.5l-244 -68l-24 -137q-4 -37 -4 -53q0 -68 35.5 -97.5t136.5 -29.5q145 0 352 96l29 -88q-205 -108 -393 -108h-3q-272 0 -272 225zM246 504l231 61 q139 37 200.5 90.5t61.5 132.5q0 131 -164 132q-133 0 -206.5 -71t-100.5 -218zM360 1163l27 142l123 4l-25 -142zM709 1163l26 142l123 4l-27 -142z" />
<glyph unicode="&#xec;" horiz-adv-x="462" d="M82 0l174 989l117 17l-176 -1006h-115zM106 1300l64 78q74 -66 217 -164l-55 -75q-145 90 -226 161z" />
<glyph unicode="&#xed;" horiz-adv-x="462" d="M82 0l174 989l117 17l-176 -1006h-115zM260 1219q141 68 287 165l49 -79q-127 -88 -291 -166z" />
<glyph unicode="&#xee;" horiz-adv-x="462" d="M82 0l174 989l117 17l-176 -1006h-115zM94 1194q131 78 268 176q78 -76 230 -182l-47 -70q-109 66 -193 131q-27 -18 -215 -131z" />
<glyph unicode="&#xef;" horiz-adv-x="462" d="M82 0l174 989l117 17l-176 -1006h-115zM113 1163l26 142l123 4l-24 -142zM461 1163l26 142l123 4l-26 -142z" />
<glyph unicode="&#xf0;" horiz-adv-x="1044" d="M102 254q0 39 9 82l47 268q33 186 133 264t278 78q160 0 293 -53q4 29 4 57q0 152 -118 240l-197 -133l-43 63l176 121q-90 66 -221 109l39 86q139 -43 272 -133l150 104l39 -68l-129 -88q139 -129 139 -327q0 -55 -15 -133l-79 -453q-31 -172 -130.5 -265t-320.5 -93 q-166 0 -246 73.5t-80 200.5zM215 264q0 -96 50 -139t181 -43q274 0 318 254l80 452q-117 55 -277 56q-139 0 -207.5 -61.5t-93.5 -202.5l-43 -242q-8 -53 -8 -74z" />
<glyph unicode="&#xf1;" d="M82 0l174 989l100 17l-16 -154q84 57 217 111.5t217 54.5q176 0 176 -164q0 -31 -6 -63l-139 -791h-115l144 811q4 25 4 33q0 67 -82 67h-2q-74 0 -197 -52t-229 -120l-131 -739h-115zM375 1200q72 109 180 109q39 0 106.5 -36t102.5 -36q47 0 102 49l49 -49 q-65 -94 -155 -94q-43 0 -118 35.5t-101 35.5q-49 0 -121 -63z" />
<glyph unicode="&#xf2;" horiz-adv-x="1015" d="M84 258q0 49 8 90l53 303q31 176 135.5 271.5t313.5 95.5q162 0 247 -76t85 -205q0 -23 -8 -75l-58 -326q-31 -174 -136 -265t-312 -91q-168 0 -248 75.5t-80 202.5zM199 262q0 -90 54 -135t177 -45q268 0 315 256l58 324q6 37 6 69q0 184 -234 184q-268 0 -315 -264 l-55 -313q-6 -39 -6 -76zM410 1300l63 78q74 -66 217 -164l-55 -75q-145 90 -225 161z" />
<glyph unicode="&#xf3;" horiz-adv-x="1015" d="M84 258q0 49 8 90l53 303q31 176 135.5 271.5t313.5 95.5q162 0 247 -76t85 -205q0 -23 -8 -75l-58 -326q-31 -174 -136 -265t-312 -91q-168 0 -248 75.5t-80 202.5zM199 262q0 -90 54 -135t177 -45q268 0 315 256l58 324q6 37 6 69q0 184 -234 184q-268 0 -315 -264 l-55 -313q-6 -39 -6 -76zM518 1219q141 68 287 165l49 -79q-127 -88 -291 -166z" />
<glyph unicode="&#xf4;" horiz-adv-x="1015" d="M84 258q0 49 8 90l53 303q31 176 135.5 271.5t313.5 95.5q162 0 247 -76t85 -205q0 -23 -8 -75l-58 -326q-31 -174 -136 -265t-312 -91q-168 0 -248 75.5t-80 202.5zM199 262q0 -90 54 -135t177 -45q268 0 315 256l58 324q6 37 6 69q0 184 -234 184q-268 0 -315 -264 l-55 -313q-6 -39 -6 -76zM362 1194q131 78 269 176q78 -76 229 -182l-47 -70q-109 66 -192 131q-27 -18 -215 -131z" />
<glyph unicode="&#xf5;" horiz-adv-x="1015" d="M84 258q0 49 8 90l53 303q31 176 135.5 271.5t313.5 95.5q162 0 247 -76t85 -205q0 -23 -8 -75l-58 -326q-31 -174 -136 -265t-312 -91q-168 0 -248 75.5t-80 202.5zM199 262q0 -90 54 -135t177 -45q268 0 315 256l58 324q6 37 6 69q0 184 -234 184q-268 0 -315 -264 l-55 -313q-6 -39 -6 -76zM356 1200q72 109 181 109q41 0 108.5 -36t99.5 -36q47 0 103 49l49 -49q-66 -94 -156 -94q-43 0 -117.5 35.5t-101.5 35.5q-49 0 -121 -63z" />
<glyph unicode="&#xf6;" horiz-adv-x="1015" d="M84 258q0 49 8 90l53 303q31 176 135.5 271.5t313.5 95.5q162 0 247 -76t85 -205q0 -23 -8 -75l-58 -326q-31 -174 -136 -265t-312 -91q-168 0 -248 75.5t-80 202.5zM199 262q0 -90 54 -135t177 -45q268 0 315 256l58 324q6 37 6 69q0 184 -234 184q-268 0 -315 -264 l-55 -313q-6 -39 -6 -76zM389 1163l27 142l123 4l-25 -142zM737 1163l27 142l123 4l-27 -142z" />
<glyph unicode="&#xf7;" horiz-adv-x="1093" d="M133 446v103h828v-103h-828zM485 90v152h123v-152h-123zM485 754v151h123v-151h-123z" />
<glyph unicode="&#xf8;" horiz-adv-x="1015" d="M25 -57l110 141q-51 70 -51 174q0 49 8 90l53 303q31 176 135.5 271.5t313.5 95.5q137 0 223 -57l109 139l59 -45l-115 -146q55 -70 56 -172q0 -23 -8 -75l-58 -326q-31 -174 -136.5 -265t-311.5 -91q-139 0 -222 55l-106 -137zM199 262q0 -45 12 -80l537 690 q-55 43 -173 43q-268 0 -315 -264l-55 -313q-6 -39 -6 -76zM258 123q57 -41 172 -41q268 0 315 256l58 324q6 37 6 69q0 49 -14 80z" />
<glyph unicode="&#xf9;" d="M102 143q0 29 7 64l137 782l119 17l-146 -820q-4 -25 -4 -36q0 -63 84 -64q74 0 196.5 52t229.5 120l129 731l119 17l-178 -1006h-99l17 145q-94 -66 -219 -115.5t-215 -49.5q-176 0 -177 163zM442 1300l64 78q74 -66 217 -164l-55 -75q-145 90 -226 161z" />
<glyph unicode="&#xfa;" d="M102 143q0 29 7 64l137 782l119 17l-146 -820q-4 -25 -4 -36q0 -63 84 -64q74 0 196.5 52t229.5 120l129 731l119 17l-178 -1006h-99l17 145q-94 -66 -219 -115.5t-215 -49.5q-176 0 -177 163zM522 1219q141 68 287 165l49 -79q-127 -88 -291 -166z" />
<glyph unicode="&#xfb;" d="M102 143q0 29 7 64l137 782l119 17l-146 -820q-4 -25 -4 -36q0 -63 84 -64q74 0 196.5 52t229.5 120l129 731l119 17l-178 -1006h-99l17 145q-94 -66 -219 -115.5t-215 -49.5q-176 0 -177 163zM403 1194q131 78 269 176q78 -76 229 -182l-47 -70q-109 66 -192 131 q-27 -18 -216 -131z" />
<glyph unicode="&#xfc;" d="M102 143q0 29 7 64l137 782l119 17l-146 -820q-4 -25 -4 -36q0 -63 84 -64q74 0 196.5 52t229.5 120l129 731l119 17l-178 -1006h-99l17 145q-94 -66 -219 -115.5t-215 -49.5q-176 0 -177 163zM401 1163l27 142l123 4l-25 -142zM750 1163l26 142l123 4l-27 -142z" />
<glyph unicode="&#xfd;" horiz-adv-x="856" d="M-29 -332q125 45 207 119t160 213h-57l-164 989l110 17l150 -930l317 629q45 88 45 159q0 43 -24 125l116 17q20 -74 21 -138q0 -88 -37 -168l-360 -700q-98 -174 -189.5 -268t-263.5 -152zM391 1219q141 68 287 165l49 -79q-127 -88 -291 -166z" />
<glyph unicode="&#xfe;" horiz-adv-x="1038" d="M8 -420l322 1825l119 16l-103 -565q193 162 404 162q198 0 198 -166q0 -22 -8 -76l-88 -497q-29 -160 -108.5 -229.5t-247.5 -69.5q-133 0 -295 38l-76 -421zM219 123q170 -41 299 -41q102 0 151.5 47t69.5 158l86 489q6 37 6 62q0 45 -21.5 61t-70.5 16 q-92 0 -203.5 -54t-211.5 -142z" />
<glyph unicode="&#xff;" horiz-adv-x="856" d="M-29 -332q125 45 207 119t160 213h-57l-164 989l110 17l150 -930l317 629q45 88 45 159q0 43 -24 125l116 17q20 -74 21 -138q0 -88 -37 -168l-360 -700q-98 -174 -189.5 -268t-263.5 -152zM279 1163l26 142l123 4l-25 -142zM627 1163l26 142l123 4l-26 -142z" />
<glyph unicode="&#x152;" horiz-adv-x="1806" d="M131 418l92 524q41 227 165 324.5t380 97.5h1063l-19 -104h-647l-90 -512h602l-18 -105h-602l-96 -539h649l-17 -104h-1061q-409 0 -409 320q0 55 8 98zM240 328q0 -111 70.5 -167.5t240.5 -56.5h293l203 1156h-293q-195 0 -291 -76t-125 -242l-90 -516q-8 -47 -8 -98z " />
<glyph unicode="&#x153;" horiz-adv-x="1581" d="M84 258q0 49 8 90l53 303q31 178 132.5 272.5t310.5 94.5q236 0 301 -180q84 180 348 180q133 0 213 -63.5t80 -174.5q0 -125 -84 -199.5t-283 -117.5l-289 -55l-24 -140q-4 -18 -4 -55q0 -133 170 -133q162 0 375 88l28 -88q-195 -100 -418 -100q-217 0 -243 151 q-57 -76 -136 -113.5t-210 -37.5q-168 0 -248 75.5t-80 202.5zM199 262q0 -90 54 -135t177 -45q268 0 315 256l58 324q6 37 6 69q0 184 -234 184q-268 0 -315 -264l-55 -313q-6 -39 -6 -76zM893 514q61 8 260 47q156 31 211 84t55 137q0 137 -192 138q-262 0 -314 -289z" />
<glyph unicode="&#x178;" horiz-adv-x="1071" d="M166 1364h115l258 -825l534 825h133l-633 -958l-71 -406h-117l76 424zM440 1503l23 123h131l-23 -123h-131zM797 1503l22 123h131l-22 -123h-131z" />
<glyph unicode="&#x2c6;" horiz-adv-x="784" d="M266 1194q131 78 269 176q78 -76 229 -182l-47 -70q-109 66 -193 131q-27 -18 -215 -131z" />
<glyph unicode="&#x2dc;" horiz-adv-x="827" d="M266 1200q72 109 180 109q41 0 109 -36t100 -36q47 0 103 49l49 -49q-66 -94 -156 -94q-43 0 -117.5 35.5t-101.5 35.5q-49 0 -121 -63z" />
<glyph unicode="&#x2000;" horiz-adv-x="855" />
<glyph unicode="&#x2001;" horiz-adv-x="1711" />
<glyph unicode="&#x2002;" horiz-adv-x="855" />
<glyph unicode="&#x2003;" horiz-adv-x="1711" />
<glyph unicode="&#x2004;" horiz-adv-x="570" />
<glyph unicode="&#x2005;" horiz-adv-x="427" />
<glyph unicode="&#x2006;" horiz-adv-x="285" />
<glyph unicode="&#x2007;" horiz-adv-x="285" />
<glyph unicode="&#x2008;" horiz-adv-x="213" />
<glyph unicode="&#x2009;" horiz-adv-x="342" />
<glyph unicode="&#x200a;" horiz-adv-x="95" />
<glyph unicode="&#x2010;" horiz-adv-x="733" d="M143 524l17 101h471l-17 -101h-471z" />
<glyph unicode="&#x2011;" horiz-adv-x="733" d="M143 524l17 101h471l-17 -101h-471z" />
<glyph unicode="&#x2012;" horiz-adv-x="733" d="M143 524l17 101h471l-17 -101h-471z" />
<glyph unicode="&#x2013;" horiz-adv-x="966" d="M143 524l17 101h704l-16 -101h-705z" />
<glyph unicode="&#x2014;" horiz-adv-x="1232" d="M143 524l17 101h970l-16 -101h-971z" />
<glyph unicode="&#x2018;" horiz-adv-x="471" d="M256 1030l31 176l139 221l45 -28l-109 -193h48l-31 -176h-123z" />
<glyph unicode="&#x2019;" horiz-adv-x="460" d="M246 1036l108 193h-47l31 176h123l-31 -176l-139 -221z" />
<glyph unicode="&#x201a;" horiz-adv-x="491" d="M31 -193l108 193h-47l31 176h123l-31 -176l-139 -221z" />
<glyph unicode="&#x201c;" horiz-adv-x="788" d="M256 1030l31 176l139 221l45 -28l-109 -193h48l-31 -176h-123zM573 1030l31 176l139 221l45 -28l-108 -193h47l-31 -176h-123z" />
<glyph unicode="&#x201d;" horiz-adv-x="778" d="M246 1036l108 193h-47l31 176h123l-31 -176l-139 -221zM563 1036l109 193h-47l30 176h123l-30 -176l-140 -221z" />
<glyph unicode="&#x201e;" horiz-adv-x="808" d="M31 -193l108 193h-47l31 176h123l-31 -176l-139 -221zM348 -193l109 193h-47l30 176h123l-31 -176l-139 -221z" />
<glyph unicode="&#x2022;" horiz-adv-x="768" d="M174 661.5q0 98.5 69.5 168t166 69.5t166 -69.5t69.5 -168t-69.5 -168t-166 -69.5t-166 69.5t-69.5 168z" />
<glyph unicode="&#x2026;" horiz-adv-x="1433" d="M92 0l31 176h123l-31 -176h-123zM563 0l31 176h123l-31 -176h-123zM1034 0l31 176h123l-31 -176h-123z" />
<glyph unicode="&#x202f;" horiz-adv-x="342" />
<glyph unicode="&#x2039;" horiz-adv-x="579" d="M104 500l326 395l84 -74l-281 -332l162 -331l-102 -52z" />
<glyph unicode="&#x203a;" horiz-adv-x="579" d="M72 190l280 332l-162 332l103 51l188 -393l-325 -395z" />
<glyph unicode="&#x205f;" horiz-adv-x="427" />
<glyph unicode="&#x20ac;" horiz-adv-x="1075" d="M41 457l16 90h189l43 246h-187l17 90h186l12 65q37 211 157 303t364 92q143 0 268 -32l-21 -101q-123 29 -256 29q-190 0 -278 -67.5t-119 -235.5l-10 -53h430l-16 -90h-430l-44 -246h429l-17 -90h-428l-14 -80q-8 -47 -8 -96q0 -104 67.5 -150.5t233.5 -46.5 q121 0 264 29l4 -101q-129 -32 -287 -32h-10q-391 0 -391 292q0 41 10 103l14 82h-188z" />
<glyph unicode="&#x2122;" horiz-adv-x="1054" d="M225 1307v57h324v-57h-131v-365h-62v365h-131zM643 942l12 422h78l117 -315l119 315h71l15 -422h-64l-4 303l-96 -252h-82l-94 252l-6 -303h-66z" />
<glyph unicode="&#xe000;" horiz-adv-x="1004" d="M0 1005h1005v-1005h-1005v1005z" />
<glyph unicode="&#xfb01;" horiz-adv-x="1138" d="M6 -350q63 53 94 109.5t50 158.5l172 981h-187l17 98h188l33 189q45 260 291 260q139 0 294 -60l-24 -88q-154 49 -268 50q-82 0 -123 -40t-56 -122l-32 -189h536l58 9l-177 -1006h-114l157 899h-479l-174 -995q-36 -209 -188 -328z" />
<glyph unicode="&#xfb02;" horiz-adv-x="1161" d="M6 -350q63 53 94 109.5t50 158.5l172 981h-187l17 98h188l33 189q25 143 96.5 201.5t243.5 58.5q141 0 315 -45l117 20l-250 -1421h-115l232 1311q-174 39 -305 39q-113 0 -158 -37t-62 -127l-32 -189h284l-26 -98h-277l-174 -995q-37 -209 -188 -328z" />
<glyph unicode="&#xfb03;" horiz-adv-x="1866" d="M6 -350q63 53 94 109.5t50 158.5l172 981h-187l17 98h188l33 189q45 260 291 260q104 0 194 -39l-24 -88q-88 29 -168 29q-82 0 -123 -40t-56 -122l-32 -189h305l-27 -98h-297l-174 -995q-36 -209 -188 -328zM708 -350q63 53 94 109.5t50 158.5l172 981h-187l17 98h188 l33 189q45 260 291 260q104 0 194 -39l-24 -88q-88 29 -168 29q-82 0 -123 -40t-56 -122l-32 -189h305l-27 -98h-297l-174 -995q-36 -209 -188 -328zM1486 0l174 989l117 17l-176 -1006h-115zM1693 1174l39 231l118 16l-40 -231z" />
<glyph unicode="&#xfb04;" horiz-adv-x="1866" d="M6 -350q63 53 94 109.5t50 158.5l172 981h-187l17 98h188l33 189q45 260 291 260q104 0 194 -39l-24 -88q-88 29 -168 29q-82 0 -123 -40t-56 -122l-32 -189h305l-27 -98h-297l-174 -995q-36 -209 -188 -328zM708 -350q63 53 94 109.5t50 158.5l172 981h-187l17 98h188 l33 189q45 260 291 260q104 0 194 -39l-24 -88q-88 29 -168 29q-82 0 -123 -40t-56 -122l-32 -189h305l-27 -98h-297l-174 -995q-36 -209 -188 -328zM1486 0l248 1405l116 16l-249 -1421h-115z" />
</font>
</defs>
</svg>
